<?xml version="1.0" encoding="UTF-8" standalone="no"?>
<!-- Created with Inkscape (http://www.inkscape.org/) -->

<svg
   xmlns:dc="http://purl.org/dc/elements/1.1/"
   xmlns:cc="http://creativecommons.org/ns#"
   xmlns:rdf="http://www.w3.org/1999/02/22-rdf-syntax-ns#"
   xmlns:svg="http://www.w3.org/2000/svg"
   xmlns="http://www.w3.org/2000/svg"
   xmlns:sodipodi="http://sodipodi.sourceforge.net/DTD/sodipodi-0.dtd"
   xmlns:inkscape="http://www.inkscape.org/namespaces/inkscape"
   version="1.1"
   id="svg885"
   width="320"
   height="240"
   viewBox="0 0 320.00001 240.00001"
   sodipodi:docname="logo.svg"
   inkscape:export-filename="/home/actumn/bitmap.png"
   inkscape:export-xdpi="96"
   inkscape:export-ydpi="96"
   inkscape:version="0.92.5 (0.92.4+202005162354+6c0c36e)">
  <metadata
     id="metadata891">
    <rdf:RDF>
      <cc:Work
         rdf:about="">
        <dc:format>image/svg+xml</dc:format>
        <dc:type
           rdf:resource="http://purl.org/dc/dcmitype/StillImage" />
        <dc:title></dc:title>
      </cc:Work>
    </rdf:RDF>
  </metadata>
  <defs
     id="defs889" />
  <sodipodi:namedview
     pagecolor="#ffffff"
     bordercolor="#666666"
     borderopacity="1"
     objecttolerance="10"
     gridtolerance="10"
     guidetolerance="10"
     inkscape:pageopacity="0"
     inkscape:pageshadow="2"
     inkscape:window-width="1920"
     inkscape:window-height="960"
     id="namedview887"
     showgrid="false"
     inkscape:zoom="1.7746722"
     inkscape:cx="74.864357"
     inkscape:cy="54.702414"
     inkscape:window-x="0"
     inkscape:window-y="27"
     inkscape:window-maximized="1"
     inkscape:current-layer="svg885" />
  <path
     style="fill:#e14949;stroke-width:0.80000007"
     d="m 110.44827,173.15327 c -5.76422,-3.51493 -7.98286,-10.11465 -5.54563,-16.49644 1.88761,-4.94264 5.73196,-7.75666 11.21826,-8.21162 8.1114,-0.67266 14.37997,5.01237 14.33845,13.00368 -0.0415,7.9891 -5.23636,13.23054 -13.10764,13.2252 -2.92233,-0.002 -5.25558,-0.51599 -6.90344,-1.52082 z m 94.88102,-0.27619 c -4.62967,-3.15092 -5.99186,-5.72463 -5.99186,-11.32093 0,-4.2814 0.33277,-5.43989 2.30545,-8.02623 2.67638,-3.5089 6.29801,-5.25284 10.90858,-5.25284 10.69963,0 16.83935,12.53707 10.49978,21.44018 -3.57916,5.02645 -12.61272,6.63714 -17.72195,3.15982 z M 87.737421,113.11525 V 67.477072 h 46.639999 c 35.20889,0 46.87529,0.235288 47.60001,0.96 0.72305,0.723058 0.96,11.66546 0.96,44.334578 0,23.85602 -0.21852,43.94402 -0.4856,44.64 -0.42674,1.11208 -3.19105,1.26543 -22.81008,1.26543 h -22.3245 l -1.8686,-4.22522 c -2.31994,-5.24579 -7.96325,-10.38943 -12.92192,-11.77777 -9.87467,-2.76474 -20.52566,2.80328 -23.864371,12.47558 l -1.079533,3.12741 -4.922702,0.23818 -4.922703,0.23817 z m 102.950009,45.04517 c -0.30251,-0.30251 -0.55,-13.41149 -0.55,-29.13108 0,-25.32421 0.1442,-28.63641 1.26543,-29.066675 0.69598,-0.26708 6.41637,-0.48559 12.71197,-0.48559 h 11.44654 l 11.08803,8.098825 c 6.09841,4.45435 11.89803,8.8371 12.88803,9.73945 1.77427,1.61718 1.8,1.9245 1.8,21.50118 v 19.86055 h -4.61222 -4.61223 l -1.39742,-3.93454 c -1.783,-5.02015 -7.79164,-10.61333 -12.95458,-12.05887 -9.88589,-2.76787 -20.7073,2.8892 -24.03326,12.56379 -1.02663,2.98625 -2.01757,3.93569 -3.04029,2.91296 z"
     id="path951"
     inkscape:connector-curvature="0" />
</svg>
